<mxfile host="65bd71144e">
    <diagram id="tgxpkRwAs3Mdv7ll0b9i" name="Page-1">
        <mxGraphModel dx="559" dy="371" grid="0" gridSize="10" guides="1" tooltips="1" connect="1" arrows="1" fold="1" page="1" pageScale="1" pageWidth="1169" pageHeight="827" math="0" shadow="0">
            <root>
                <mxCell id="0"/>
                <mxCell id="1" parent="0"/>
                <mxCell id="6" value="X:\f\YourSecret" style="rounded=0;whiteSpace=wrap;html=1;" vertex="1" parent="1">
                    <mxGeometry x="301" y="419" width="225" height="51" as="geometry"/>
                </mxCell>
                <mxCell id="7" value="虛擬磁碟區位置" style="text;html=1;strokeColor=none;fillColor=none;align=center;verticalAlign=middle;whiteSpace=wrap;rounded=0;" vertex="1" parent="1">
                    <mxGeometry x="301" y="472" width="102" height="26" as="geometry"/>
                </mxCell>
                <mxCell id="8" value="" style="group" vertex="1" connectable="0" parent="1">
                    <mxGeometry x="301" y="276" width="225" height="79" as="geometry"/>
                </mxCell>
                <mxCell id="2" value="C:\a\b\c\d\e\f\YourSecret" style="rounded=0;whiteSpace=wrap;html=1;" vertex="1" parent="8">
                    <mxGeometry width="225" height="51" as="geometry"/>
                </mxCell>
                <mxCell id="3" value="實體磁碟區位置" style="text;html=1;strokeColor=none;fillColor=none;align=center;verticalAlign=middle;whiteSpace=wrap;rounded=0;" vertex="1" parent="8">
                    <mxGeometry y="53" width="102" height="26" as="geometry"/>
                </mxCell>
                <mxCell id="9" value="" style="endArrow=classic;html=1;exitX=0.5;exitY=1;exitDx=0;exitDy=0;entryX=0.5;entryY=0;entryDx=0;entryDy=0;" edge="1" parent="1" source="2" target="6">
                    <mxGeometry width="50" height="50" relative="1" as="geometry">
                        <mxPoint x="559" y="415" as="sourcePoint"/>
                        <mxPoint x="609" y="365" as="targetPoint"/>
                    </mxGeometry>
                </mxCell>
                <mxCell id="10" value="下完 command 並且從 f 處開始切割" style="text;html=1;strokeColor=none;fillColor=none;align=center;verticalAlign=middle;whiteSpace=wrap;rounded=0;" vertex="1" parent="1">
                    <mxGeometry x="423" y="365" width="103" height="30" as="geometry"/>
                </mxCell>
                <mxCell id="14" style="edgeStyle=orthogonalEdgeStyle;html=1;entryX=0;entryY=0.5;entryDx=0;entryDy=0;curved=1;" edge="1" parent="1" source="11" target="2">
                    <mxGeometry relative="1" as="geometry"/>
                </mxCell>
                <mxCell id="15" style="edgeStyle=orthogonalEdgeStyle;html=1;entryX=0;entryY=0.5;entryDx=0;entryDy=0;curved=1;" edge="1" parent="1" source="11" target="6">
                    <mxGeometry relative="1" as="geometry"/>
                </mxCell>
                <mxCell id="11" value="User" style="shape=umlActor;verticalLabelPosition=bottom;verticalAlign=top;html=1;outlineConnect=0;" vertex="1" parent="1">
                    <mxGeometry x="116" y="331" width="30" height="60" as="geometry"/>
                </mxCell>
                <mxCell id="16" value="原本訪問入口" style="text;html=1;strokeColor=none;fillColor=none;align=center;verticalAlign=middle;whiteSpace=wrap;rounded=0;" vertex="1" parent="1">
                    <mxGeometry x="204" y="272" width="83" height="30" as="geometry"/>
                </mxCell>
                <mxCell id="17" value="做完虛擬映射後的入口" style="text;html=1;strokeColor=none;fillColor=none;align=center;verticalAlign=middle;whiteSpace=wrap;rounded=0;" vertex="1" parent="1">
                    <mxGeometry x="204" y="446" width="83" height="30" as="geometry"/>
                </mxCell>
            </root>
        </mxGraphModel>
    </diagram>
</mxfile>